<svg width="49" height="91" viewBox="0 0 49 91" fill="none" xmlns="http://www.w3.org/2000/svg">
<g clip-path="url(#clip0_9_3)">
<path fill-rule="evenodd" clip-rule="evenodd" d="M48.5329 0.191231C48.2888 0.383296 48.2909 0.385361 48.5758 0.249056C48.7393 0.171611 48.9404 0.147866 49.0221 0.197431C49.1122 0.253192 49.1332 0.230475 49.0766 0.139605C48.9519 -0.0596881 48.8356 -0.0483342 48.5329 0.191231ZM49.0305 12.3388C49.0127 18.9527 48.9645 24.4709 48.9226 24.601C48.8556 24.8127 48.8629 24.8148 48.9897 24.6217C49.0892 24.4709 49.1206 20.8248 49.0965 12.3595L49.063 0.313082L49.0305 12.3388ZM46.5109 1.0359C46.2584 1.17944 46.1694 1.25791 46.3139 1.20938C46.4585 1.16188 46.6785 1.09373 46.8053 1.05759C46.931 1.02248 47.0337 0.941937 47.0337 0.878948C47.0337 0.73335 47.0515 0.72922 46.5109 1.0359ZM38.0008 4.51476C37.7493 4.65313 37.6142 4.76568 37.699 4.76568C37.9421 4.76568 38.5225 4.47862 38.5225 4.35781C38.5225 4.22357 38.5456 4.21634 38.0008 4.51476ZM35.6718 5.48541C35.4801 5.62378 35.499 5.63617 35.8091 5.57731C36.0071 5.54014 36.1946 5.46889 36.226 5.41726C36.3224 5.26444 35.9086 5.31399 35.6718 5.48541ZM28.8893 8.32508C28.7489 8.4366 28.7133 8.48926 28.8086 8.4397C28.905 8.3922 29.1407 8.30546 29.3325 8.24764C29.6132 8.16503 29.6289 8.14231 29.4131 8.13302C29.2644 8.12682 29.0286 8.21356 28.8893 8.32508ZM18.2891 12.7085C18.0733 12.8066 17.9842 12.8871 18.0932 12.8882C18.2 12.8882 18.4368 12.8056 18.617 12.7044C19.0308 12.471 18.8098 12.4741 18.2891 12.7085ZM16.5217 13.4788C16.3415 13.58 16.2525 13.6626 16.3247 13.6626C16.397 13.6626 16.6034 13.58 16.7826 13.4788C16.9638 13.3776 17.0518 13.294 16.9795 13.294C16.9083 13.294 16.7008 13.3776 16.5217 13.4788ZM3.60303 18.963C3.44798 19.025 3.28455 19.1334 3.24054 19.2046C3.19549 19.2759 3.33693 19.247 3.55379 19.1396C3.77171 19.0332 3.94981 18.9207 3.94981 18.8907C3.94981 18.8246 3.95609 18.8236 3.60303 18.963ZM2.01478 20.3291C1.85345 20.5728 1.74658 20.7721 1.77801 20.7721C1.86916 20.7721 2.41185 19.9884 2.35842 19.9347C2.33118 19.9078 2.17717 20.0854 2.01478 20.3291ZM46.9362 25.3641C46.7016 25.4653 46.5109 25.581 46.5109 25.6202C46.5109 25.7255 47.0557 25.5428 47.3574 25.3363C47.6843 25.1132 47.4884 25.1266 46.9362 25.3641ZM7.80519 25.4891C8.08596 25.6966 8.32587 25.74 8.21482 25.5624C8.17606 25.5004 8.01053 25.4158 7.84709 25.3755C7.56108 25.3042 7.56004 25.3084 7.80519 25.4891ZM44.8409 26.2078C44.6073 26.2739 44.4156 26.3627 44.4156 26.404C44.4156 26.5093 45.1102 26.3286 45.26 26.184C45.4014 26.0467 45.4088 26.0457 44.8409 26.2078ZM10.1037 26.3864C10.285 26.4876 10.4903 26.5713 10.5626 26.5713C10.6349 26.5713 10.5469 26.4876 10.3667 26.3864C10.1865 26.2852 9.98013 26.2016 9.90784 26.2016C9.8366 26.2016 9.9246 26.2852 10.1037 26.3864ZM11.8072 27.0597C11.9141 27.0989 12.1215 27.1846 12.2651 27.2497C12.5228 27.3674 12.5228 27.3653 12.2724 27.1681C12.1331 27.0576 11.9267 26.9719 11.8146 26.9771C11.6375 26.9864 11.6375 26.9977 11.8072 27.0597ZM14.0325 27.9281C14.0325 27.9642 14.2095 28.083 14.4253 28.1935C14.6422 28.3029 14.8182 28.3649 14.8182 28.3288C14.8182 28.2936 14.6422 28.1749 14.4253 28.0644C14.2095 27.9539 14.0325 27.893 14.0325 27.9281ZM40.2417 28.0809C39.9987 28.1852 39.8321 28.3009 39.8698 28.338C39.9075 28.3752 40.1642 28.2874 40.4418 28.1439C41.0212 27.8414 40.8923 27.8011 40.2417 28.0809ZM62.3389 28.653C58.9518 29.4429 57.0807 33.0374 58.5087 36.0103C59.3196 37.7007 60.1996 38.4018 63.7972 40.2295C65.7679 41.2301 66.8669 41.9148 67.0628 42.2628C67.1424 42.4042 67.3593 42.7233 67.5437 42.9722C68.3053 43.9965 67.6065 45.8573 66.2613 46.388C64.1252 47.2296 61.6391 46.2848 59.9953 44.0068C59.6559 43.5349 59.6433 43.507 59.0168 41.8311C58.6847 40.941 58.5789 40.7789 58.3295 40.7779H58.0341V44.328C58.0341 48.3706 58.033 48.3644 59.0514 47.3607C59.7156 46.7061 60.0142 46.7019 61.8329 47.3153C69.1759 49.7956 74.6007 42.5126 68.9381 37.7771C68.7045 37.5819 68.4792 37.4229 68.4373 37.4229C68.3965 37.4229 68.1157 37.2556 67.815 37.0512C67.5133 36.8478 66.7663 36.4378 66.1545 36.1404C65.5426 35.843 64.9235 35.5343 64.7789 35.4558C64.6343 35.3773 64.0906 35.0861 63.5689 34.8084C61.2818 33.5909 60.5893 31.9584 61.8109 30.6635C63.7669 28.589 67.8433 30.2866 68.9936 33.6539C69.3362 34.6576 69.3739 34.7123 69.7385 34.7123H70.124L70.0381 32.5614C69.9899 31.3791 69.9522 29.9851 69.9522 29.4636C69.9522 28.4268 69.4567 28.0004 69.2398 28.8523C68.9475 30.0005 68.6856 30.016 66.4771 29.0175C65.4494 28.5518 63.5049 28.3804 62.3389 28.653ZM188.779 28.7098C186.728 29.1941 185.14 29.9995 183.84 31.2149C183.172 31.8396 182.052 33.1965 182.052 33.3813C182.052 33.4412 181.9 33.7097 181.714 33.9781C180.009 36.4533 180.485 41.5709 182.669 44.2195C185.047 47.1036 190.092 48.574 194.427 47.6447C196.456 47.2089 197.494 46.9281 198.252 46.61L199.073 46.2641L199.075 44.0058C199.078 40.8574 199.347 40.276 200.811 40.2647C201.106 40.2626 201.171 40.2048 201.171 39.9394V39.6162H191.985L192.027 39.9074C192.063 40.1531 192.174 40.2099 192.758 40.2801C194.245 40.4588 194.36 40.7138 194.36 43.8096V46.1784L193.451 46.3829C188.573 47.4764 185.841 44.6088 185.834 38.3905C185.826 31.4627 190.066 27.83 194.848 30.6676C195.246 30.9041 195.589 31.0972 195.611 31.0972C195.934 31.0972 197.519 33.1965 197.973 34.2239C198.31 34.9911 198.397 35.0923 198.716 35.0954L199.075 35.0996V28.5167H198.768C198.541 28.5167 198.354 28.684 198.054 29.161C197.604 29.8735 197.234 29.9985 196.522 29.6784C194.304 28.685 190.762 28.241 188.779 28.7098ZM16.2032 28.8812C16.4505 29.0888 17.0455 29.2849 17.0455 29.1579C17.0455 29.0898 17.0298 29.032 17.012 29.032C16.9931 29.032 16.7763 28.9752 16.529 28.906C16.2828 28.8358 16.1351 28.8244 16.2032 28.8812ZM37.7368 29.1073L37.4088 29.3015L37.7368 29.2158C38.2114 29.0918 38.5225 28.9111 38.2606 28.9122C38.1516 28.9122 37.9159 28.9999 37.7368 29.1073ZM73.2262 28.9039V34.0659H73.5446C73.8202 34.0659 73.8893 33.9689 74.0674 33.3245C74.7044 31.029 75.7793 30.1957 78.1082 30.1947L79.2575 30.1936L79.2209 37.9062C79.1769 47.0654 79.2554 46.7164 77.2691 46.7164C76.675 46.7164 76.631 46.7381 76.631 47.0386V47.3607H86.5838V47.0386C86.5838 46.7381 86.5398 46.7164 85.9311 46.7164C83.8882 46.7164 83.9636 47.0571 83.9636 37.8215V30.1709L85.3717 30.2143C87.4282 30.2793 88.4151 31.0621 89.0552 33.1386C89.3098 33.9627 89.3768 34.0659 89.665 34.0659H89.9887V28.9039H73.2262ZM91.4282 29.2168C91.4282 29.4966 91.5004 29.5421 92.0505 29.6123C94.0903 29.8715 93.9823 29.3965 93.9823 38.1974C93.9823 46.9828 94.0431 46.7164 92.0222 46.7164C91.4764 46.7164 91.4282 46.7412 91.4282 47.0386V47.3607H107.635L107.786 46.3601C107.87 45.8108 107.994 44.8381 108.061 44.1989C108.129 43.5607 108.245 42.7243 108.318 42.3423C108.501 41.4036 108.506 41.4232 108.061 41.4232C107.837 41.4232 107.668 41.4924 107.668 41.5823C107.668 42.2617 106.552 44.1029 105.66 44.898C104.096 46.2899 99.4993 46.799 98.8749 45.6497C98.7921 45.4969 98.7062 44.0017 98.6633 41.9767L98.591 38.5629L99.2332 38.6517C100.992 38.8975 101.779 39.7814 102.303 42.1006C102.448 42.746 102.51 42.8441 102.777 42.8441H103.084V33.0695L102.781 33.1262C102.527 33.1748 102.451 33.3121 102.312 33.9709C101.816 36.3387 100.815 37.4229 99.1232 37.4229H98.6319V30.1678L100.891 30.2174C103.356 30.2711 103.814 30.395 104.917 31.3109C105.361 31.6796 106.225 33.2801 106.228 33.7396C106.233 34.354 106.379 34.5822 106.769 34.5822H107.149L107.114 31.7756L107.078 28.9679L99.2542 28.9349L91.4282 28.9008V29.2168ZM110.025 29.2622C110.025 29.6443 110.034 29.6484 110.846 29.699C111.666 29.7507 112.241 30.0171 112.475 30.4528C112.599 30.6831 112.695 44.6026 112.578 45.3926C112.464 46.1598 111.883 46.5863 110.815 46.6813C110.092 46.7453 110.025 46.7773 110.025 47.0561V47.3607H119.715V47.0386C119.715 46.7515 119.661 46.7164 119.224 46.7154C117.297 46.7123 117.228 46.5646 117.228 42.4972V39.0999L117.719 39.1061C118.157 39.1112 118.259 39.1815 118.668 39.7607C118.92 40.118 119.317 40.6519 119.55 40.9482C119.784 41.2456 119.976 41.5554 119.976 41.6391C119.977 41.7217 120.027 41.8094 120.088 41.8322C120.149 41.8559 120.457 42.2524 120.772 42.714C121.087 43.1756 121.409 43.6113 121.488 43.6826C121.566 43.7538 121.945 44.2763 122.33 44.8443C122.715 45.4122 123.143 46.0008 123.28 46.1516C123.417 46.3023 123.636 46.6224 123.766 46.862L124.003 47.2967L135.462 47.3298L146.923 47.3628L147.071 46.1681C147.153 45.5113 147.279 44.2185 147.351 43.2954C147.423 42.3722 147.516 41.4532 147.559 41.2529C147.74 40.3886 146.807 40.8512 146.537 41.7599C145.555 45.0549 144.16 46.1082 140.682 46.1784C137.221 46.2497 137.526 47.0365 137.526 38.0084C137.526 29.383 137.419 29.8457 139.457 29.6154C140.209 29.5307 140.276 29.4987 140.276 29.2116V28.9008L135.266 28.9339C130.269 28.9679 130.257 28.969 130.218 29.2426C130.182 29.4873 130.261 29.5266 130.938 29.6092C131.642 29.6939 132.485 30.0604 132.711 30.3816C132.868 30.6026 132.833 45.626 132.673 45.9688C132.345 46.6792 130.277 46.9714 129.219 46.4572C128.754 46.2321 127.763 45.1365 127.245 44.2753C127.173 44.1545 126.935 43.8272 126.717 43.5473C126.497 43.2664 126.144 42.7822 125.932 42.4693C125.718 42.1574 125.426 41.7423 125.281 41.5461C123.221 38.7426 123.231 38.7612 123.728 38.5856C123.935 38.5134 124.205 38.3967 124.33 38.3254C124.455 38.2552 124.643 38.1974 124.748 38.1974C125.001 38.1974 126.097 37.2525 126.524 36.666C127.821 34.8806 127.351 31.821 125.561 30.4033C123.931 29.1135 123.238 29.0082 115.885 28.9349L110.025 28.8771V29.2622ZM149.007 28.9876C148.693 29.2984 148.951 29.5152 149.798 29.6536C151.624 29.952 151.509 29.3851 151.525 38.1685C151.541 46.9529 151.595 46.7164 149.557 46.7164C148.963 46.7164 148.919 46.7381 148.919 47.0386V47.3607H158.872V47.0386C158.872 46.7391 158.826 46.7164 158.251 46.7164C156.202 46.7164 156.247 46.9116 156.255 37.9878C156.262 29.4027 156.161 29.8549 158.126 29.6195C158.81 29.5379 158.883 29.4997 158.847 29.2478L158.806 28.9679L153.951 28.9339C151.282 28.9153 149.057 28.9401 149.007 28.9876ZM159.681 29.255C159.718 29.5607 159.798 29.6195 160.288 29.7021C160.991 29.8188 161.578 30.174 162.052 30.7667L162.416 31.2231L162.379 38.2924C162.343 45.1158 162.334 45.375 162.078 45.7974C161.776 46.2941 160.923 46.6978 160.149 46.7081C159.714 46.7154 159.658 46.7536 159.658 47.0386V47.3607H166.467V47.0551C166.467 46.7845 166.395 46.7412 165.845 46.6895C163.695 46.4841 163.717 46.5677 163.717 39.0927V32.8547L164.012 33.2419C164.386 33.7345 164.5 33.8708 165.15 34.5977C165.442 34.924 165.681 35.2555 165.681 35.3329C165.681 35.4093 165.758 35.5198 165.853 35.5766C165.947 35.6334 166.355 36.0919 166.759 36.5958C167.164 37.1007 167.736 37.7978 168.03 38.1447C168.324 38.4927 168.708 38.9522 168.881 39.1649C169.056 39.3776 169.397 39.7845 169.64 40.0685C169.883 40.3524 170.455 41.0494 170.911 41.6174C171.367 42.1853 171.82 42.6964 171.92 42.7532C172.017 42.81 172.099 42.9195 172.099 42.9969C172.099 43.0733 172.338 43.4048 172.63 43.7332C172.922 44.0595 173.205 44.3858 173.255 44.457C173.307 44.5283 173.848 45.1892 174.459 45.9254C175.069 46.6617 175.677 47.402 175.809 47.5714C176.542 48.5069 176.527 48.6474 176.579 39.5842C176.633 29.7899 176.566 30.1616 178.348 29.762C179.013 29.6133 179.105 29.5555 179.105 29.2798V28.9679L175.929 28.9328L172.753 28.8987V29.2106C172.753 29.5452 172.966 29.6763 173.516 29.6794C174.077 29.6835 174.863 30.205 175.164 30.775C175.428 31.2737 175.646 37.2629 175.481 39.483L175.438 40.0592L174.717 39.1753C174.321 38.6879 173.88 38.1313 173.735 37.9372C173.43 37.5241 170.942 34.4397 170.457 33.8728C170.275 33.6591 169.682 32.9342 169.139 32.2589C168.598 31.5846 167.759 30.554 167.279 29.9685L166.404 28.9039H159.64L159.681 29.255ZM35.9484 29.8054C35.7944 29.8673 35.631 29.9758 35.587 30.047C35.521 30.1523 36.2281 29.8756 36.4157 29.7217C36.5141 29.6422 36.2365 29.6918 35.9484 29.8054ZM120.382 30.3712C121.716 30.8411 122.48 32.0214 122.572 33.7572C122.723 36.5793 121.316 37.9382 118.247 37.9382H117.228V30.1936L118.57 30.1998C119.316 30.2029 120.12 30.2793 120.382 30.3712ZM33.5786 30.7853C33.3439 30.8865 33.1533 30.9949 33.1533 31.0259C33.1533 31.122 33.9338 30.8225 34.0123 30.6976C34.0993 30.5581 34.1119 30.5561 33.5786 30.7853ZM22.9962 31.6796C23.1356 31.7859 23.3451 31.8716 23.4614 31.8716C23.5766 31.8716 23.7422 31.9305 23.8291 32.0007C23.9276 32.0812 23.9255 32.0637 23.8228 31.9532C23.7317 31.8561 23.452 31.7116 23.2005 31.6331C22.7825 31.5009 22.7647 31.5061 22.9962 31.6796ZM100.409 52.34C99.8126 52.9286 100.475 53.7423 101.299 53.4345C101.712 53.2796 101.816 52.3586 101.436 52.215C101.071 52.0767 100.62 52.1314 100.409 52.34ZM107.34 52.3296C107.124 52.4319 106.781 52.5754 106.577 52.6497C106.11 52.8191 106.134 53.2569 106.608 53.1908C107.046 53.1289 107.14 53.355 107.142 54.4826L107.143 55.4719L106.608 55.2643C104.378 54.4021 102.18 57.4875 103.317 59.8852C104.006 61.3391 105.666 61.8585 106.75 60.9591L107.143 60.6328V61.0314C107.143 61.5395 107.257 61.5343 108.433 60.9798C109.299 60.5698 109.643 60.1341 108.96 60.3107C108.354 60.4666 108.322 60.2518 108.322 56.0646V52.1376L108.027 52.1396C107.866 52.1417 107.556 52.2264 107.34 52.3296ZM157.955 52.4659C157.183 52.7871 156.906 53.2796 157.547 53.1908C157.986 53.1299 158.081 53.354 158.084 54.4424C158.086 55.3707 158.078 55.3913 157.792 55.3025C155.724 54.6602 153.94 56.1668 153.973 58.5263C154.005 60.6256 156.003 62.1074 157.469 61.1192C158.079 60.7092 158.086 60.7092 158.086 61.1078C158.086 61.5312 158.295 61.5209 159.335 61.0407C160.131 60.6741 160.564 60.1393 159.933 60.3024C159.345 60.4542 159.332 60.3747 159.292 56.1431L159.254 52.1376L158.964 52.151C158.805 52.1593 158.351 52.3007 157.955 52.4659ZM192.2 52.3947C191.912 52.5269 191.573 52.6673 191.447 52.7045C191.051 52.8253 191.182 53.1495 191.644 53.1939L192.069 53.2342V60.5822L191.644 60.702C190.674 60.9757 191.153 61.1719 192.789 61.1719C194.427 61.1719 194.904 60.9757 193.936 60.702L193.51 60.5822L193.441 52.1376L193.082 52.1448C192.885 52.15 192.488 52.2625 192.2 52.3947ZM79.774 52.6859C79.774 52.8077 79.9437 52.9141 80.2193 52.9647C80.8301 53.0783 80.8206 53.0236 80.8206 56.8483C80.8206 60.4459 80.7997 60.6566 80.4246 60.6566C80.0475 60.6566 79.774 60.7981 79.774 60.9922C79.774 61.1378 80.1386 61.1719 81.6839 61.1719C83.9091 61.1719 84.1647 60.9984 82.5566 60.5781C82.4361 60.5461 82.3921 60.0897 82.3921 58.8537V57.1715H82.7127C82.9558 57.1715 83.1475 57.3409 83.5037 57.8685C83.7624 58.2527 84.06 58.6368 84.1648 58.7235C84.2706 58.8103 84.3575 58.9466 84.3575 59.0261C84.3586 59.1056 84.5492 59.3865 84.7839 59.6477C85.0165 59.91 85.3696 60.3592 85.5665 60.6473L85.9259 61.1719H87.1715C88.3292 61.1719 88.4172 61.1543 88.4172 60.9137C88.4172 60.7031 88.3292 60.6566 87.9395 60.6566C87.3486 60.6566 86.6697 59.9968 85.4397 58.232L84.6226 57.06L85.0699 56.9144C86.8761 56.3269 87.0573 53.6906 85.3507 52.8191C84.7525 52.5124 79.774 52.3947 79.774 52.6859ZM163.587 52.7003C163.587 52.8397 163.698 52.912 163.913 52.912C164.73 52.912 164.765 53.0762 164.765 56.8969C164.765 60.8073 164.804 60.6659 163.685 60.7753C163.631 60.7815 163.587 60.8776 163.587 60.9901C163.587 61.3495 168.909 61.1946 169.873 60.8053C173.073 59.5166 173.225 54.3536 170.103 52.973C169.067 52.5145 163.587 52.2842 163.587 52.7003ZM236.923 52.7179C236.923 52.8418 237.052 52.9131 237.282 52.9151C238.15 52.9255 238.162 52.9719 238.207 56.5148C238.255 60.3034 238.218 60.5337 237.511 60.7278C236.404 61.0345 236.827 61.1719 238.875 61.1719C240.49 61.1719 240.851 61.1388 240.851 60.9901C240.851 60.8776 240.647 60.7743 240.319 60.7185C239.569 60.5946 239.541 60.4552 239.541 56.8308C239.541 53.1692 239.603 52.9182 240.491 52.9131C240.722 52.912 240.851 52.8428 240.851 52.7179C240.851 52.5548 240.545 52.5248 238.887 52.5248C237.228 52.5248 236.923 52.5548 236.923 52.7179ZM83.7771 53.3333C85.7939 53.8527 84.8897 56.6542 82.7054 56.6542H82.3921V54.9876C82.3921 53.7712 82.4372 53.3044 82.5566 53.2611C82.8216 53.164 83.2082 53.1877 83.7771 53.3333ZM168.469 53.3592C171.992 54.0655 171.053 60.5203 167.427 60.5254C166.098 60.5275 166.206 60.8528 166.206 56.8432V53.3158L166.565 53.2683C167.07 53.2032 167.885 53.2414 168.469 53.3592ZM231.448 53.8476C231.307 54.3422 230.563 55.2137 230.145 55.3748C229.669 55.5555 229.774 55.8797 230.309 55.8797H230.768V60.3891L231.174 60.8456C231.857 61.6128 232.938 61.3629 233.499 60.3096C233.773 59.7933 233.449 59.6911 232.986 60.1475C232.292 60.8311 232.108 60.3437 232.09 57.7839L232.076 55.8797H232.732C233.299 55.8797 233.387 55.8457 233.387 55.6226C233.387 55.3986 233.299 55.3634 232.732 55.3634H232.076V54.3959C232.076 53.2941 231.696 52.9616 231.448 53.8476ZM90.3187 55.3118C88.7692 55.8705 88.1092 58.0647 88.9326 59.9131C89.8148 61.8937 92.5932 61.8369 93.4491 59.8202C93.8619 58.8454 93.5277 58.4499 93.0143 59.307C92.1699 60.7165 89.9572 60.0029 89.7571 58.2558L89.6922 57.6868H93.6555V57.2314C93.6555 55.6237 92.0358 54.6922 90.3187 55.3118ZM95.4952 55.286C93.7854 55.8952 94.1898 57.8159 96.2296 58.7752C97.4396 59.3441 97.8325 60.1465 97.1264 60.6029C96.4318 61.051 95.4344 60.4883 95.1012 59.4619C94.7828 58.4799 94.4643 58.8124 94.4863 60.1052L94.5062 61.2317L95.227 61.2823C97.1861 61.4176 97.3495 61.3959 97.9435 60.9251C99.3359 59.8212 98.9001 58.6017 96.7042 57.4596C96.1217 57.1571 95.6104 56.8174 95.5674 56.7069C95.0258 55.3149 97.0572 55.3593 97.6523 56.7513C97.9938 57.5484 98.239 57.2924 98.239 56.1379C98.239 55.097 98.1227 54.8853 97.7508 55.2509H97.1808C96.6486 55.0681 96.0745 55.0805 95.4952 55.286ZM100.727 55.2581C100.547 55.3325 100.178 55.4822 99.9079 55.5916C99.3191 55.8302 99.2552 56.1379 99.7948 56.1379C100.291 56.1379 100.33 56.3052 100.332 58.4943C100.334 60.3571 100.2 60.7846 99.6135 60.7846C99.5056 60.7846 99.4176 60.8724 99.4176 60.9788C99.4176 61.1915 102.347 61.2782 102.479 61.0686C102.564 60.9323 102.403 60.7237 102.2 60.7072C101.615 60.6618 101.643 60.8053 101.643 57.8809V55.1053L101.348 55.1146C101.187 55.1187 100.907 55.1838 100.727 55.2581ZM111.442 55.2519C109.343 55.8343 108.938 59.7593 110.854 60.9467C112.315 61.8513 113.976 61.27 114.533 59.6581C114.802 58.8764 114.598 58.5986 114.174 59.1707C113.696 59.814 113.465 59.9926 112.985 60.0814C112.051 60.2539 110.877 59.2512 110.786 58.2031L110.745 57.7519L112.709 57.6868L114.674 57.6228L114.642 57.1199C114.55 55.6206 113.119 54.7852 111.442 55.2519ZM115.983 55.3862C115.623 55.5266 115.224 55.6743 115.095 55.7125C114.772 55.8106 114.886 56.0646 115.273 56.1152C115.835 56.1885 115.918 56.4559 115.918 58.2124C115.918 60.353 115.861 60.6204 115.379 60.7237C114.375 60.9416 114.991 61.1719 116.572 61.1719C118.2 61.1719 118.811 60.9209 117.686 60.7123L117.228 60.6277V56.6728L117.595 56.4136C117.944 56.1689 118.338 56.0739 118.819 56.1183C119.18 56.1524 119.322 56.869 119.321 58.643C119.319 60.4707 119.279 60.6246 118.793 60.6979C118.616 60.7247 118.452 60.8425 118.429 60.9591C118.392 61.1481 118.568 61.1719 119.967 61.1719C121.56 61.1719 122.14 60.9591 121.19 60.7247C120.659 60.5926 120.636 60.5007 120.635 58.4251C120.633 56.394 120.526 55.9066 119.982 55.4285C119.523 55.0258 118.47 55.0722 117.775 55.5266L117.228 55.8839V55.4946C117.228 55.0216 116.971 55 115.983 55.3862ZM123.73 55.2767C120.841 56.1441 121.375 61.366 124.353 61.366C125.47 61.366 126.64 60.3809 126.87 59.2481C126.988 58.6699 126.699 58.6585 126.334 59.2275C125.138 61.0965 123.186 60.1269 123.186 57.6641C123.186 55.9293 124.823 54.8791 125.262 56.3341C125.456 56.9795 125.556 57.1044 125.91 57.1468C126.749 57.2459 127.023 56.648 126.492 55.8777C126.014 55.1827 124.87 54.9349 123.73 55.2767ZM129.347 55.3108C128.261 55.7032 127.649 56.7668 127.647 58.2682C127.641 61.4001 131.011 62.6103 132.423 59.9833C132.947 59.0085 132.595 58.3952 132.054 59.3431C131.179 60.8776 128.751 59.7675 128.751 57.8334C128.751 57.7312 129.339 57.6868 130.715 57.6868H132.68V57.0652C132.68 55.6113 130.986 54.7191 129.347 55.3108ZM134.355 55.3696C133.227 55.9572 133.323 57.5278 134.536 58.327C134.972 58.6141 135.386 58.8485 135.454 58.8485C136.278 58.8485 136.858 60.3902 136.134 60.6618C135.321 60.9664 134.481 60.4377 134.109 59.3865C133.815 58.5583 133.597 58.8867 133.597 60.1547V61.3319L133.957 61.2638C134.155 61.2256 134.625 61.2555 135.002 61.3298C137.121 61.747 138.504 59.8832 137.227 58.3332C137.14 58.2258 136.566 57.884 135.955 57.5732C134.469 56.8184 134.182 56.4157 134.77 55.92C135.385 55.4006 136.227 55.7083 136.627 56.5984C137.04 57.5206 137.264 57.3584 137.264 56.1379C137.264 55.097 137.147 54.8853 136.776 55.2509H136.206C135.589 55.0382 134.908 55.0826 134.355 55.3696ZM143.115 55.2767C142.179 55.5607 141.625 56.4353 142.002 57.0311C142.363 57.6021 143.157 57.2965 143.157 56.584C143.157 55.8054 144.215 55.4192 144.655 56.0377C145.171 56.7637 144.969 57.1034 143.649 57.725C142.251 58.3828 141.854 58.7483 141.757 59.467C141.541 61.0438 142.938 61.8286 144.336 60.9147C144.734 60.6535 144.94 60.5812 144.975 60.6896C145.262 61.6128 147.216 61.1254 147.216 60.13C147.216 59.8243 146.99 59.8109 146.669 60.0959C146.3 60.4253 146.27 60.2972 146.199 58.073C146.121 55.6866 146.044 55.4936 145.066 55.2519C144.345 55.0712 143.767 55.0795 143.115 55.2767ZM148.027 55.4213C146.93 55.824 146.742 56.1379 147.6 56.1379C148.068 56.1379 148.134 56.4146 148.134 58.3972C148.134 60.3447 148.07 60.6204 147.594 60.7237C146.609 60.9364 147.201 61.1719 148.722 61.1719C150.249 61.1719 150.828 60.9354 149.869 60.7031C149.337 60.575 149.315 60.4914 149.314 58.5831C149.312 56.6232 149.47 56.2763 150.45 56.0956C151.311 55.9376 151.466 56.2494 151.519 58.262C151.574 60.4026 151.531 60.6081 151.015 60.7206C150.799 60.7671 150.622 60.8879 150.622 60.9891C150.622 61.1925 153.557 61.27 153.683 61.0686C153.769 60.9323 153.609 60.7237 153.404 60.7072C153.314 60.7 153.157 60.6855 153.056 60.6752C152.905 60.6597 152.861 60.2332 152.826 58.4293C152.788 56.5303 152.747 56.1441 152.537 55.8033C151.996 54.9246 150.544 54.9132 149.608 55.7796L149.312 56.0543V55.5793C149.312 55.0062 149.199 54.9927 148.027 55.4213ZM174.948 55.2602C173.529 55.6319 172.652 58.1474 173.403 59.688C174.506 61.9484 177.006 61.9608 178.111 59.7118C178.566 58.7855 178.083 58.4293 177.611 59.3421C176.939 60.638 174.898 60.1702 174.461 58.6193C174.187 57.6455 174.11 57.6878 176.191 57.6858C178.395 57.6837 178.44 57.6672 178.27 56.9185C177.945 55.4925 176.609 54.8265 174.948 55.2602ZM187.192 55.3201C185.271 55.9902 184.845 59.4557 186.52 60.7826C187.896 61.873 189.676 61.4269 190.356 59.8202C190.77 58.8454 190.435 58.4499 189.923 59.307C189.064 60.7423 186.635 59.8718 186.635 58.1288V57.694L188.566 57.6579L190.498 57.6228L190.489 57.0115C190.471 55.5576 188.869 54.7346 187.192 55.3201ZM196.653 55.3097C194.774 55.9789 194.244 58.9218 195.709 60.5575C196.969 61.9649 199.348 61.556 200.198 59.7861C201.53 57.0105 199.407 54.3308 196.653 55.3097ZM202.284 55.2633C200.91 55.7156 200.433 56.1379 201.296 56.1379C201.82 56.1379 201.825 56.1761 201.825 59.8181C201.825 63.3775 201.802 63.4952 201.086 63.4952C200.844 63.4952 200.77 63.5551 200.804 63.7214C200.828 63.8453 200.891 63.933 200.944 63.9155C200.996 63.8969 201.718 63.8825 202.546 63.8825C204.094 63.8825 204.678 63.6398 203.606 63.4415C203.361 63.3961 203.125 63.2691 203.082 63.1596C202.968 62.8643 202.991 60.8228 203.106 61.0035C203.401 61.4579 204.601 61.555 205.341 61.1832C207.929 59.8821 207.548 55.1053 204.857 55.1053C204.129 55.1053 203.302 55.5906 203.098 56.1379C203.057 56.2453 203.02 56.0563 203.014 55.7187C203.004 55.063 202.964 55.0382 202.284 55.2633ZM208.439 55.4192C207.557 55.7434 207.291 56.1379 207.956 56.1379C208.465 56.1379 208.501 56.2959 208.501 58.5263C208.501 60.4304 208.465 60.5967 208.048 60.6752C207.905 60.702 207.767 60.8249 207.743 60.9478C207.703 61.1502 207.843 61.1719 209.149 61.1719C210.623 61.1719 211.235 60.9044 210.219 60.7031C209.727 60.607 209.687 60.4397 209.686 58.4365L209.682 56.7967L210.109 56.4828C211.524 55.4368 212.042 56.0274 212.039 58.6843C212.037 60.4903 212.008 60.5946 211.482 60.7247C210.552 60.954 211.109 61.1719 212.63 61.1719C214.155 61.1719 214.736 60.9354 213.776 60.7031C213.246 60.575 213.224 60.4914 213.221 58.5831L213.218 56.8318L213.592 56.4787C214.39 55.7259 215.285 55.9789 215.457 57.0032C215.767 58.866 215.54 60.5358 214.953 60.7031C213.985 60.9757 214.464 61.1719 216.1 61.1719C217.737 61.1719 218.27 60.9447 217.246 60.6845L216.82 60.576L216.754 58.3239C216.682 55.8271 216.617 55.6009 215.884 55.2994C215.025 54.9452 213.95 55.223 213.372 55.9458C213.115 56.269 213.088 56.2773 213.088 56.0357C213.088 55.0247 211.084 54.8544 210.109 55.7837L209.682 56.1895V55.6474C209.682 55.0062 209.605 54.9907 208.439 55.4192ZM219.659 55.317C217.667 56.0346 217.384 59.5269 219.206 60.9065C220.538 61.9164 222.571 61.1781 223.037 59.5145C223.265 58.6967 222.846 58.5852 222.412 59.3483C221.538 60.8796 219.111 59.7386 219.111 57.7963C219.111 57.7395 220.01 57.6775 221.109 57.6579L223.106 57.6228L223.079 57.0538C223.012 55.6175 221.274 54.7336 219.659 55.317ZM224.285 55.4192C223.403 55.7434 223.138 56.1379 223.8 56.1379C224.288 56.1379 224.351 56.3961 224.351 58.3972C224.351 60.3447 224.287 60.6204 223.811 60.7237C222.808 60.9416 223.424 61.1719 225.004 61.1719C226.587 61.1719 227.166 60.9591 226.218 60.7247C225.69 60.5936 225.665 60.4945 225.661 58.5759C225.659 56.3961 226.198 55.6391 227.362 56.1823L227.69 56.3351L227.726 58.4685L227.761 60.6008L227.341 60.7247C226.38 61.0097 226.765 61.1719 228.399 61.1719C229.992 61.1719 230.611 60.9426 229.603 60.7237C229.105 60.6163 229.068 60.448 229.066 58.231C229.065 55.9933 228.885 55.476 228.024 55.2209C227.369 55.0278 226.466 55.2499 225.988 55.7207L225.66 56.0439V55.5751C225.66 55.0062 225.471 54.9845 224.285 55.4192ZM242.423 55.2581C242.243 55.3325 241.874 55.4822 241.604 55.5916C240.998 55.8364 240.968 56.108 241.539 56.1616L241.964 56.203L242.001 58.1391C242.045 60.3995 242.012 60.5998 241.572 60.7093C240.647 60.9375 241.242 61.1719 242.75 61.1719C244.323 61.1719 244.784 60.9715 243.832 60.7031C243.315 60.5575 243.226 60.2033 243.216 58.2609L243.209 56.964L243.643 56.5478C244.111 56.1007 244.904 55.952 245.211 56.2525C245.322 56.362 245.369 57.0321 245.369 58.4943V60.5812L244.944 60.702C243.974 60.9757 244.452 61.1719 246.09 61.1719C247.411 61.1719 247.661 61.1409 247.661 60.9757C247.661 60.86 247.499 60.7464 247.268 60.701L246.875 60.6235L246.87 58.9301C246.863 56.3134 246.704 55.6794 245.962 55.3015C245.226 54.9256 244.065 55.2302 243.492 55.9458L243.209 56.3021V55.7042C243.209 55.0537 243.086 54.9845 242.423 55.2581ZM249.806 55.3149C247.217 56.2195 247.378 60.6204 250.026 61.3144C250.745 61.5033 251.083 61.431 251.86 60.924C252.54 60.48 253.336 59.0984 253.066 58.833C252.87 58.6399 252.685 58.7762 252.43 59.3028C251.572 61.0872 249.233 59.8935 249.233 57.6703C249.233 55.8519 251.122 54.9566 251.517 56.5891C251.726 57.4565 252.898 57.3884 252.898 56.5096C252.898 55.444 251.255 54.8079 249.806 55.3149ZM178.516 55.4997C178.516 55.5741 178.686 55.6939 178.894 55.7651C179.277 55.8973 179.934 57.0208 180.339 58.2341C180.428 58.5005 180.642 58.9827 180.817 59.307C180.991 59.6302 181.139 59.9937 181.144 60.1145C181.16 60.4181 181.688 61.336 181.885 61.399C182.035 61.4476 182.479 60.6287 182.91 59.5073C184 56.6728 184.627 55.4997 184.945 55.6939C185.01 55.7341 185.064 55.6753 185.064 55.5648C185.064 55.3996 184.877 55.3634 184.016 55.3634C182.989 55.3634 182.627 55.5328 183.295 55.698C183.733 55.8064 183.812 55.4925 182.618 58.3962C182.244 59.308 182.124 59.4082 181.998 58.9146C181.952 58.738 181.747 58.23 181.54 57.7849C180.769 56.1286 180.717 55.7507 181.261 55.7507C181.41 55.7507 181.528 55.666 181.528 55.5576C181.528 55.3965 181.273 55.3634 180.021 55.3634C179.054 55.3634 178.516 55.413 178.516 55.4997ZM91.7372 56.0677C91.9279 56.2422 92.084 56.4694 92.084 56.5737C92.084 56.6769 92.1196 56.8545 92.1636 56.9671C92.2328 57.1447 92.0777 57.1715 90.985 57.1715C89.7655 57.1715 89.7268 57.1622 89.731 56.8803C89.7435 55.9902 91.0657 55.4543 91.7372 56.0677ZM106.461 55.952C107.017 56.3372 107.143 56.7946 107.142 58.4231L107.14 59.9462L106.669 60.2466C106.143 60.5833 105.811 60.5564 105.262 60.13C103.506 58.7679 104.668 54.715 106.461 55.952ZM112.785 56.1286C113.01 56.3506 113.168 56.6428 113.168 56.838V57.1715H110.811V56.7884C110.811 55.9293 112.134 55.4863 112.785 56.1286ZM130.605 55.8901C130.848 56.0191 131.24 56.7265 131.24 57.0383C131.24 57.1199 130.76 57.1715 129.986 57.1715C128.628 57.1715 128.714 57.2304 128.936 56.459C129.094 55.9138 130.039 55.5916 130.605 55.8901ZM157.636 56.1462C158.016 56.5375 158.021 56.5592 158.059 58.2434L158.099 59.9462L157.637 60.2508C156.369 61.0882 155.062 59.2368 155.462 57.1715C155.715 55.8674 156.846 55.3345 157.636 56.1462ZM176.257 56.0078C176.606 56.2184 176.681 56.3444 176.681 56.7172V57.1715H175.503C174.198 57.1715 174.117 57.1044 174.548 56.3857C174.922 55.762 175.597 55.6123 176.257 56.0078ZM188.584 56.1059C188.794 56.301 189.003 56.6201 189.047 56.8153L189.127 57.1715H187.882C186.675 57.1715 186.635 57.1622 186.638 56.8803C186.652 55.9593 187.893 55.4646 188.584 56.1059ZM198.262 55.9531C199.187 56.5922 199.545 59.0819 198.86 60.1072C197.948 61.4713 196.547 60.4119 196.253 58.135C196.033 56.4301 197.167 55.1972 198.262 55.9531ZM221.076 55.9778C221.257 56.1018 221.414 56.2618 221.427 56.3341C221.439 56.4064 221.49 56.6243 221.539 56.8184L221.629 57.1715H220.371C219.678 57.1715 219.111 57.1406 219.111 57.1024C219.111 56.1462 220.317 55.4564 221.076 55.9778ZM205.065 56.5365C206.348 57.946 205.837 60.6907 204.292 60.6907C203.288 60.6907 203.004 60.1981 203.004 58.4509V57.0249L203.481 56.5809C204.098 56.0068 204.573 55.9944 205.065 56.5365ZM144.859 58.8578C144.859 59.8016 144.786 59.9616 144.223 60.2601C142.89 60.9622 142.54 59.1356 143.848 58.3022C144.748 57.7281 144.859 57.7901 144.859 58.8578ZM21.1702 58.6699C20.882 58.7783 20.4693 58.9166 20.2535 58.9776C19.6458 59.15 18.8538 59.4526 18.4201 59.6766C18.2042 59.7882 17.9318 59.8801 17.8135 59.8811C17.6071 59.8821 16.9931 60.099 16.1938 60.4583C15.9769 60.5544 15.5359 60.7062 15.2111 60.796C14.8874 60.8838 14.4159 61.0603 14.1645 61.1853C13.912 61.3102 13.4699 61.4785 13.1818 61.5591C12.5406 61.7388 11.7245 62.0444 11.275 62.2767C11.0906 62.3717 10.79 62.475 10.6098 62.5081C10.0692 62.6051 9.04457 62.9738 8.74913 63.1772C8.59827 63.2804 8.33949 63.3672 8.17396 63.3672C7.86595 63.3672 7.79052 63.3951 6.89582 63.8432C6.60772 63.9867 6.04827 64.1788 5.65225 64.2686C5.25519 64.3585 4.78479 64.5134 4.60355 64.6115C4.4244 64.7106 3.59884 65.0235 2.77119 65.3075C1.9425 65.5914 1.24476 65.8816 1.22171 65.9508C1.19656 66.0199 1.04256 66.0778 0.877028 66.0778C0.302912 66.0778 0.310246 65.9342 0.237957 78.2749C0.200242 84.8062 0.151002 90.2935 0.127953 90.468C0.098619 90.6962 0.15624 90.8015 0.330151 90.8366C0.544921 90.8789 0.795311 90.7891 1.75392 90.3244C1.87859 90.2635 2.06926 90.2139 2.17612 90.2139C2.28403 90.2139 2.65176 90.089 2.99644 89.9372C4.27144 89.3703 6.18237 88.6196 7.20593 88.284C7.6648 88.1332 8.25359 87.905 8.5155 87.776C8.77741 87.6458 9.15771 87.5013 9.36201 87.4527C9.5663 87.4042 10.1017 87.1936 10.5532 86.9829C11.0047 86.7723 11.4961 86.6008 11.6449 86.6008C11.7947 86.6008 11.9361 86.5554 11.9592 86.4986C11.9832 86.4439 12.593 86.1764 13.3127 85.9059C14.0325 85.6343 14.7396 85.3617 14.8842 85.2967C15.0277 85.2337 15.5285 85.0416 15.9968 84.8702C16.8549 84.5573 18.2912 84.009 19.1398 83.6713C19.3923 83.5712 19.7558 83.4039 19.9465 83.3027C20.1372 83.1994 20.3886 83.1158 20.5049 83.1158C20.6201 83.1158 20.8181 83.06 20.9428 82.9939C21.3818 82.7595 22.661 82.2112 22.7668 82.2112C22.8244 82.2123 23.4918 81.9706 24.2471 81.6753C25.0046 81.38 25.8291 81.0588 26.0816 80.9618C26.333 80.8647 26.706 80.6995 26.9103 80.5952C27.1135 80.4899 27.3629 80.4052 27.4624 80.4052C27.6384 80.4052 28.2984 80.1491 28.9616 79.8238C29.1428 79.7361 29.6436 79.544 30.0752 79.3963C30.5079 79.2497 31.1009 79.0132 31.3942 78.8728C31.6865 78.7303 32.0993 78.5734 32.3109 78.5238C32.5215 78.4732 32.7531 78.3896 32.8253 78.3379C32.8976 78.2853 33.5158 78.0292 34.2009 77.7679C35.2831 77.3549 35.8342 77.136 37.016 76.6486C37.1606 76.5887 38.0448 76.2438 38.9803 75.8813C39.9169 75.5179 40.7383 75.1678 40.8064 75.1017C40.8755 75.0367 41.0641 74.984 41.2255 74.984C41.3868 74.984 41.5523 74.9293 41.5932 74.8632C41.6351 74.7981 41.8855 74.6742 42.1495 74.5875C42.4146 74.5008 42.9007 74.3118 43.2286 74.1662C43.5565 74.0196 43.898 73.8874 43.985 73.8729C44.2804 73.8223 45.7576 73.053 46.2354 72.7009C48.1243 71.311 48.1075 69.947 46.1819 68.5591C45.8205 68.2999 44.9436 67.8838 44.755 67.8838C44.6377 67.8838 44.2333 67.7227 43.8561 67.5255C43.479 67.3283 42.9101 67.0908 42.5906 66.9968C42.271 66.9039 41.7063 66.6581 41.3355 66.4526C40.9646 66.2461 40.5382 66.0778 40.3863 66.0778C40.2354 66.0778 40.0196 65.9859 39.9065 65.8744C39.7933 65.7628 39.7011 65.7029 39.7011 65.7432C39.7011 65.7824 39.4926 65.6998 39.2391 65.5584C38.9845 65.4179 38.7111 65.3033 38.6304 65.3033C38.4921 65.3033 37.8698 65.0369 36.775 64.5113C36.4984 64.3791 36.2009 64.2697 36.1139 64.2697C36.0291 64.2697 35.7253 64.1499 35.4392 64.0022C35.1543 63.8556 34.5697 63.6212 34.1412 63.4828C33.7117 63.3445 33.3293 63.1896 33.2895 63.1379C33.192 63.0078 32.0019 62.4626 31.8185 62.4626C31.7368 62.4626 31.2507 62.2675 30.7405 62.0289C30.2292 61.7894 29.6227 61.5529 29.3922 61.5033C29.1627 61.4527 28.839 61.3113 28.6735 61.1884C28.509 61.0655 28.1077 60.8827 27.783 60.7815C27.4592 60.6814 26.8705 60.4377 26.4744 60.2425C26.0784 60.0453 25.674 59.8842 25.5756 59.8832C25.4771 59.8821 25.1523 59.7593 24.8548 59.6095C23.7422 59.0529 23.5672 58.9776 23.3839 58.9776C23.2812 58.9776 23.0654 58.9104 22.904 58.8289C22.0345 58.3859 21.9465 58.3776 21.1702 58.6699ZM254.667 59.8481C254.174 59.9668 254.045 60.6256 254.412 61.1429C254.827 61.7274 255.78 61.3092 255.78 60.542C255.78 60.0122 255.281 59.7004 254.667 59.8481ZM177.8 82.2959C177.659 82.3372 177.408 82.458 177.243 82.5644C176.744 82.8866 174.193 82.9547 173.538 82.6635C173.063 82.4518 172.872 82.4446 171.282 82.5861C170.326 82.6707 169.073 82.7668 168.497 82.7998C167.921 82.8329 167.007 82.8866 166.467 82.9206C165.927 82.9547 164.601 83.0146 163.521 83.0549C162.44 83.0951 160.584 83.2129 159.395 83.3161C158.207 83.4194 156.55 83.5309 155.711 83.565C154.874 83.5991 154.024 83.6879 153.82 83.7632C153.618 83.8397 152.565 83.9584 151.481 84.0286C149.108 84.1804 146.815 84.4344 146.606 84.5687C146.521 84.6213 145.167 84.7824 143.593 84.9249C142.021 85.0674 140.557 85.2461 140.341 85.3235C139.879 85.4877 138.188 85.6478 135.103 85.8212C133.878 85.8894 132.464 86.0339 131.96 86.1413C131.456 86.2498 130.897 86.3396 130.715 86.3417C130.536 86.3437 130.153 86.4294 129.865 86.5327C129.577 86.6349 129.046 86.7206 128.686 86.7237C128.044 86.7279 126.84 86.9509 125.543 87.3061C125.184 87.4042 124.387 87.5508 123.776 87.6314C123.163 87.713 122.426 87.8854 122.138 88.0166C121.85 88.1477 121.475 88.2954 121.305 88.3439C120.689 88.5225 119.991 89.2815 120.095 89.6605C120.356 90.6208 122.65 90.9037 125.608 90.341C126.317 90.2067 128.473 89.9682 129.443 89.9176C129.716 89.9042 129.982 89.8277 130.033 89.7493C130.2 89.4952 130.688 89.3114 131.198 89.3083C131.473 89.3063 131.958 89.2454 132.274 89.1731C132.592 89.1008 134.389 89.0244 136.269 89.0006C138.705 88.9707 139.987 88.9005 140.734 88.7549C141.31 88.6423 142.577 88.4513 143.55 88.3294C144.522 88.2086 145.583 88.032 145.907 87.936C146.231 87.842 146.703 87.7636 146.955 87.7625C147.206 87.7615 147.619 87.7068 147.872 87.6407C148.123 87.5746 149.067 87.4579 149.966 87.3815C151.695 87.2328 152.974 87.0862 155.164 86.7847C155.898 86.6835 157.078 86.6008 157.786 86.6008C158.495 86.6008 159.545 86.5451 160.119 86.4769C160.693 86.4088 161.938 86.2931 162.885 86.2208C163.832 86.1486 164.863 86.0339 165.177 85.9637C165.728 85.8419 168.625 85.5992 170.92 85.4825C171.532 85.4526 172.446 85.3669 172.95 85.2936C173.453 85.2203 174.809 85.1139 175.962 85.055C177.114 84.9972 178.44 84.9156 178.909 84.8733C179.376 84.832 180.821 84.7649 182.117 84.7246C183.414 84.6854 184.709 84.5914 184.998 84.516C185.286 84.4427 187.053 84.3281 188.926 84.2651C193.138 84.1205 192.902 84.1257 194.165 84.1505C194.741 84.1618 195.688 84.1174 196.268 84.0524C198.106 83.8438 205.916 83.9667 206.093 84.2062C206.175 84.3157 206.342 84.4055 206.465 84.4055C206.588 84.4055 206.788 84.4572 206.909 84.5191C207.219 84.6802 211.706 84.7958 212.199 84.6564C212.447 84.5862 213.07 84.5945 213.797 84.6781C216.272 84.9631 216.493 84.9693 216.493 84.7576C216.493 84.546 216.226 84.4055 215.824 84.4055C215.682 84.4055 215.536 84.3239 215.497 84.2228C215.437 84.072 214.891 84.0389 212.42 84.0348C209.186 84.0297 209.16 84.0255 209.16 83.5732C209.16 83.2438 208.941 83.1158 208.382 83.1158C208.183 83.1158 207.849 83.06 207.64 82.9939C207.431 82.9268 206.612 82.8442 205.82 82.8112C205.027 82.7771 203.672 82.6873 202.808 82.6119C201.943 82.5355 200.677 82.4446 199.993 82.4085C198.138 82.3124 178.099 82.2112 177.8 82.2959ZM211.386 83.1685C211.386 83.2841 211.547 83.4359 211.745 83.5061C211.943 83.5743 212.208 83.6899 212.333 83.7601C212.838 84.0472 213.447 83.7705 213.275 83.3326C213.22 83.1901 213.033 83.1323 212.652 83.1375C212.351 83.1437 211.943 83.1044 211.745 83.0518C211.459 82.9764 211.386 82.9991 211.386 83.1685ZM214.366 83.2046C214.051 83.2851 214.075 83.724 214.397 83.8252C214.969 84.0038 215.392 83.63 215.026 83.2707C214.865 83.1117 214.764 83.1013 214.366 83.2046ZM219.8 84.4024C219.204 84.6544 219.58 85.0509 220.416 85.0519C220.743 85.0519 221.162 85.1304 221.346 85.2254C221.955 85.5393 223.433 85.6188 223.433 85.339C223.433 84.9693 223.164 84.7928 222.599 84.7928C222.308 84.7928 221.978 84.7029 221.849 84.5883C221.576 84.3436 220.226 84.2217 219.8 84.4024Z" fill="#C38304"/>
<path fill-rule="evenodd" clip-rule="evenodd" d="M48.1473 0.458668C47.788 0.636277 47.1688 0.900625 46.7728 1.04519C46.3768 1.18975 45.6979 1.46856 45.2663 1.66372C44.8336 1.85992 44.1862 2.12323 43.8258 2.25024C43.4664 2.37725 43.0547 2.56002 42.9133 2.65605C42.7708 2.75209 42.5801 2.82953 42.4879 2.82953C42.3957 2.82953 41.9515 2.99372 41.5021 3.19508C40.7488 3.53171 38.3057 4.54779 37.2119 4.97942C36.9605 5.07855 36.5875 5.24584 36.3832 5.35013C36.18 5.45442 35.9599 5.54013 35.895 5.54013C35.8311 5.54013 35.3492 5.73633 34.8253 5.97589C34.3015 6.21546 33.6373 6.48393 33.3492 6.57377C33.0611 6.66257 32.7667 6.78133 32.6944 6.83605C32.6221 6.89078 32.004 7.15306 31.3188 7.41741C30.6347 7.68279 29.959 7.97811 29.8165 8.07518C29.6751 8.17224 29.4833 8.25072 29.3922 8.25072C29.3 8.25072 28.8568 8.41491 28.4053 8.61627C27.7201 8.92295 26.7647 9.3174 25.2298 9.92974C25.0863 9.9886 24.7029 10.1487 24.3791 10.287C24.0544 10.4264 23.4645 10.6701 23.0685 10.8302C22.6725 10.9892 22.0544 11.2494 21.694 11.4064C21.3336 11.5644 20.3614 11.9722 19.5327 12.314C18.705 12.6558 17.6595 13.1009 17.209 13.3033C16.7574 13.5067 16.33 13.6719 16.2567 13.6719C16.1823 13.6719 15.7265 13.8516 15.2415 14.0715C14.7575 14.2915 14.1833 14.5434 13.9675 14.6312C13.7517 14.719 13.3683 14.8811 13.1168 14.9916C12.8643 15.1031 12.4222 15.289 12.1341 15.4036C11.846 15.5203 11.4437 15.701 11.2394 15.8053C11.0362 15.9096 10.8151 15.9953 10.7491 15.9953C10.6831 15.9953 10.2305 16.1729 9.74442 16.3897C8.29341 17.0361 8.10588 17.1167 7.35366 17.4141C6.95765 17.5721 6.57735 17.7517 6.50925 17.8168C6.44115 17.8798 6.30286 17.9314 6.20334 17.9314C5.91732 17.9314 3.13579 19.3161 2.76911 19.6414C1.39249 20.8609 1.3443 21.8987 2.60987 23.0624C2.86026 23.2937 3.12217 23.4827 3.19237 23.4827C3.26151 23.4827 3.69943 23.6562 4.16669 23.8699C4.6329 24.0827 5.04358 24.2572 5.07815 24.2572C5.11377 24.2572 5.41864 24.3759 5.75703 24.5215C6.75859 24.9542 6.86022 24.9944 7.68158 25.3042C8.11426 25.4674 8.53123 25.645 8.6098 25.7008C8.68838 25.7565 9.0121 25.8908 9.33059 26.0002C10.1069 26.2666 11.8942 26.9956 13.4437 27.6792C13.6595 27.7753 14.4557 28.0954 15.2111 28.3928C15.9685 28.6891 16.8224 29.035 17.1105 29.161C17.3986 29.286 17.9161 29.4915 18.2608 29.6164C18.6055 29.7424 18.9177 29.8952 18.9565 29.9551C18.9942 30.016 19.1251 30.0656 19.2488 30.0656C19.3713 30.0656 19.6919 30.1812 19.9601 30.3227C20.2294 30.4652 20.5122 30.5809 20.5887 30.5809C20.6652 30.5809 21.034 30.7223 21.408 30.8958C21.781 31.0682 22.4116 31.3316 22.8077 31.4813C23.2037 31.63 23.7045 31.8313 23.9203 31.9274C24.4734 32.1752 24.8611 32.3332 25.6887 32.6512C26.0847 32.8041 26.575 33.0157 26.7783 33.1231C26.9826 33.2305 27.277 33.2873 27.4341 33.2512C27.8993 33.1417 28.6567 32.8423 28.8485 32.6925C28.9469 32.6151 29.2026 32.5118 29.4163 32.4612C29.63 32.4106 30.1014 32.2372 30.4639 32.074C30.8264 31.9119 31.4477 31.6517 31.8437 31.4957C32.2397 31.3398 32.6818 31.1612 32.8254 31.0972C32.9689 31.0331 33.6174 30.7729 34.2659 30.5179C34.9133 30.2638 35.5618 30.0036 35.7064 29.9406C35.851 29.8766 36.4984 29.6133 37.1469 29.3531C37.7954 29.0929 38.4439 28.8337 38.5875 28.7759C38.732 28.718 39.3208 28.4847 39.897 28.2565C40.4733 28.0293 41.1218 27.766 41.3376 27.671C42.1726 27.3065 44.9059 26.2088 45.5282 25.9868C45.8886 25.8587 46.2123 25.7183 46.2479 25.6749C46.2846 25.6316 46.6974 25.4591 47.1657 25.2918C47.634 25.1246 48.2374 24.8809 48.5077 24.7497L48.998 24.5091V12.4431C48.998 5.80654 49.0033 0.33579 49.0085 0.283127C49.0284 0.093127 48.7843 0.14269 48.1473 0.458668Z" fill="#FBBB14"/>
<path fill-rule="evenodd" clip-rule="evenodd" d="M0.108053 21.7603C-0.0920498 21.9575 0.0106207 45.7612 0.213866 46.5305C0.501972 47.6199 1.48467 48.6949 2.83615 49.3991C3.53494 49.7626 6.16142 50.8458 6.35209 50.8489C6.4359 50.8489 6.91573 51.0533 7.41965 51.3001C7.92358 51.5469 8.40864 51.7493 8.49665 51.7503C8.58465 51.7503 8.96809 51.8897 9.34734 52.0612C9.72764 52.2326 10.5689 52.5888 11.2174 52.8521C11.8659 53.1165 12.9115 53.5564 13.5422 53.8321C14.1729 54.1067 14.7637 54.3308 14.8559 54.3308C14.9471 54.3308 15.1388 54.4062 15.2802 54.4971C15.4227 54.5879 15.8931 54.7986 16.3247 54.9628C17.209 55.2994 17.8417 55.5576 18.4201 55.8178C18.9931 56.0759 20.7343 56.7998 21.0392 56.9051C21.1827 56.9557 21.5662 57.1158 21.8899 57.2603C22.2147 57.4049 22.7448 57.6269 23.0685 57.7539C23.3933 57.8809 24.0271 58.1504 24.4766 58.3528C24.9281 58.5542 25.3315 58.7204 25.3744 58.7204C25.4603 58.7204 26.2775 59.0612 26.6316 59.244C26.7542 59.308 27.4027 59.5723 28.0721 59.8326C28.7416 60.0917 29.4058 60.384 29.5483 60.48C29.6908 60.5771 29.9286 60.6566 30.0784 60.6566C30.2282 60.6566 30.4063 60.7092 30.4744 60.7743C30.5425 60.8393 31.1302 61.1058 31.7777 61.366C32.4262 61.6272 33.2622 61.9804 33.6352 62.1518C34.0092 62.3232 34.3518 62.4626 34.3958 62.4626C34.5058 62.4626 35.6247 62.9459 36.0542 63.1792C36.2449 63.2815 36.5141 63.3672 36.6493 63.3672C36.7865 63.3672 36.9542 63.4188 37.0233 63.4828C37.0914 63.5468 37.7368 63.8391 38.4565 64.1323C39.1762 64.4256 39.8687 64.7209 39.9934 64.7901C40.1191 64.8593 40.2868 64.9161 40.3674 64.9161C40.4491 64.9161 40.8766 65.0803 41.3197 65.2816C41.7619 65.4819 42.359 65.736 42.6471 65.8454C45.7576 67.0267 47.2285 67.9612 48.4354 69.5205C49.1101 70.392 49.0902 70.6006 49.196 61.3515C49.3375 48.8146 49.2809 46.3508 48.822 45.3657C48.1871 44.0027 45.9493 42.1791 44.5329 41.8724C44.3244 41.828 44.1537 41.7371 44.1537 41.6711C44.1537 41.606 44.0856 41.5523 44.0038 41.5523C43.9221 41.5523 43.612 41.4418 43.3166 41.3065C42.3192 40.8501 40.555 40.1542 40.1589 40.0612C39.9431 40.0106 39.6781 39.895 39.5691 39.8031C39.4623 39.7122 39.2108 39.5965 39.0118 39.548C38.8127 39.4984 38.6178 39.4076 38.5791 39.3436C38.5393 39.2816 38.4125 39.2289 38.2962 39.2289C38.181 39.2289 37.6519 39.0265 37.1207 38.7777C36.5896 38.5288 36.0836 38.3254 35.9956 38.3254C35.9086 38.3254 35.4833 38.1581 35.0516 37.9537C33.9495 37.4322 32.3969 36.7817 31.7777 36.5803C31.4896 36.4874 30.8851 36.2313 30.4335 36.0134C29.982 35.7935 29.5085 35.6148 29.3796 35.6148C29.2507 35.6148 29.0894 35.5611 29.0213 35.494C28.9522 35.4279 28.4252 35.1883 27.849 34.9632C27.2728 34.7371 26.4357 34.385 25.9883 34.1805C25.542 33.975 25.1293 33.8088 25.0716 33.8088C24.9752 33.8108 23.5085 33.2068 22.1529 32.6089C21.8281 32.4654 21.21 32.2175 20.7773 32.0575C19.5892 31.6176 17.5495 30.7719 16.9418 30.4652C16.6443 30.3165 16.3153 30.1936 16.2105 30.1936C16.1058 30.1936 15.6762 30.0284 15.2551 29.826C14.2022 29.319 12.3793 28.5755 11.7088 28.3793C11.4018 28.2905 11.1525 28.1749 11.1525 28.1232C11.1525 28.0716 10.8424 27.9322 10.4652 27.8145C10.0859 27.6957 9.35363 27.3984 8.83609 27.1536C8.31854 26.9089 7.80729 26.7086 7.70147 26.7086C7.59461 26.7086 7.16403 26.5403 6.74391 26.3337C6.32276 26.1272 5.7434 25.8897 5.4553 25.8061C3.58208 25.2609 1.66801 23.8452 0.787983 22.352C0.396159 21.687 0.281964 21.5889 0.108053 21.7603ZM227.945 28.9638C227.84 29.2106 227.755 29.445 227.755 29.4863C227.755 29.5266 227.549 29.9943 227.297 30.5251C227.044 31.0569 226.839 31.5463 226.839 31.6145C226.839 31.6826 226.638 32.1607 226.393 32.677C225.901 33.7076 225.302 35.0603 224.547 36.8416C224.276 37.4807 223.856 38.4266 223.613 38.946C223.37 39.4644 223.172 39.9445 223.172 40.0148C223.172 40.0839 223.002 40.4722 222.796 40.879C222.59 41.2849 222.376 41.763 222.321 41.9395C222.267 42.1171 222.024 42.6851 221.781 43.2014C221.538 43.7177 221.335 44.2113 221.33 44.298C221.299 44.8969 220.067 46.2713 219.339 46.5191C218.722 46.7298 218.589 46.8279 218.589 47.0685V47.3607H224.612V47.0644C224.612 46.8062 224.512 46.7474 223.857 46.6141C222.168 46.2703 222.148 45.7271 223.702 42.4909C223.914 42.049 224.089 41.5988 224.089 41.4903C224.089 41.32 224.554 41.2952 227.688 41.2952H231.286L231.373 41.6494C231.421 41.8445 231.648 42.4104 231.876 42.9081C233.188 45.7591 233.1 46.4427 231.389 46.6813C230.979 46.7381 230.898 46.8 230.898 47.0551V47.3607H238.494V47.0385C238.494 46.7907 238.425 46.7153 238.199 46.7133C237.123 46.7029 235.089 44.425 235.089 43.2303C235.089 43.1694 234.89 42.6954 234.647 42.175C234.405 41.6556 234.161 41.0856 234.105 40.908C234.05 40.7304 233.836 40.2399 233.63 39.8196C233.424 39.3993 233.255 38.9945 233.255 38.9223C233.255 38.8489 233.056 38.3512 232.813 37.8153C232.338 36.7724 231.8 35.5208 231.422 34.5822C231.294 34.2631 230.91 33.3627 230.57 32.582C230.23 31.8004 229.811 30.7977 229.64 30.3516C228.892 28.4062 228.364 27.9746 227.945 28.9638ZM201.957 29.2137C201.957 29.4904 202.031 29.5348 202.644 29.6164C204.585 29.8756 204.51 29.5369 204.51 38.1974C204.51 46.7866 204.527 46.7164 202.541 46.7164C202.004 46.7164 201.957 46.7422 201.957 47.0385V47.3607H216.483L216.632 46.8124C216.713 46.5109 216.971 45.6827 217.206 44.9733C217.623 43.7115 217.933 42.5797 217.933 42.3257C217.933 41.7857 217.292 42.27 216.89 43.1115C215.755 45.4969 214.823 45.975 211.184 46.0452C208.051 46.1061 207.671 46.0194 207.498 45.2088C207.358 44.5613 207.36 32.0265 207.499 31.0641C207.623 30.2143 208.404 29.6784 209.521 29.6784C210.256 29.6784 210.468 29.573 210.468 29.2126V28.9039H201.957V29.2137ZM238.232 29.2911C238.232 29.6556 238.262 29.6784 238.752 29.6784C239.509 29.6784 240.563 30.1998 241.284 30.933L241.914 31.5732L241.865 38.4669C241.807 46.8733 241.847 46.7164 239.832 46.7164C239.33 46.7164 239.28 46.7453 239.28 47.0385V47.3607H245.959V47.054C245.959 46.767 245.9 46.7422 245.134 46.6947C244.005 46.6234 243.54 46.2899 243.35 45.4174C243.083 44.1937 243.159 33.0354 243.432 33.4247C243.554 33.6002 243.728 33.8016 243.818 33.8728C243.909 33.9441 244.119 34.1867 244.283 34.4139C244.62 34.8765 245.892 36.4326 246.603 37.2515C246.861 37.5479 247.229 37.9836 247.422 38.2191C247.615 38.4555 247.972 38.881 248.215 39.1649C248.458 39.4489 249.038 40.1459 249.502 40.7128C249.966 41.2797 250.434 41.8445 250.541 41.9684C250.65 42.0913 250.896 42.3825 251.088 42.6149C251.28 42.8472 251.663 43.3077 251.94 43.6371C252.482 44.2887 252.625 44.4643 253.525 45.5857C253.852 45.9946 254.169 46.3291 254.23 46.3291C254.291 46.3291 254.342 46.4004 254.345 46.4902C254.356 46.8258 255.349 47.748 255.7 47.748H256.041L256.051 39.262C256.056 34.5946 256.1 30.6759 256.149 30.554C256.326 30.1151 257.085 29.7031 257.885 29.6123C258.592 29.5307 258.662 29.4956 258.662 29.2137V28.9039H251.983V29.2178C251.983 29.4966 252.053 29.542 252.604 29.6102C254.558 29.8498 254.492 29.6174 254.558 36.6485L254.611 42.3918L253.958 41.6824C253.597 41.2911 253.301 40.9286 253.298 40.8759C253.294 40.8233 252.879 40.3183 252.376 39.7545C251.871 39.1907 251.459 38.6703 251.459 38.598C251.459 38.5268 251.382 38.4214 251.289 38.3646C251.197 38.3079 250.743 37.7967 250.282 37.2288C249.82 36.6608 249.264 35.9866 249.043 35.7315C248.823 35.4744 248.466 35.0438 248.25 34.7712C248.034 34.4986 247.677 34.069 247.457 33.817C247.237 33.563 246.681 32.8918 246.221 32.3239C245.762 31.756 245.293 31.1911 245.181 31.0693C245.068 30.9464 244.622 30.4136 244.19 29.8828L243.404 28.9204L240.818 28.9122L238.232 28.9039V29.2911ZM259.316 29.2003C259.316 29.4832 259.386 29.5286 259.939 29.603C261.966 29.8766 261.862 29.4398 261.907 37.8556C261.956 46.7938 261.973 46.7164 259.903 46.7164C259.36 46.7164 259.316 46.7412 259.316 47.0478V47.3803L264.98 47.3297C271.1 47.274 271.129 47.2719 272.965 46.5099C279.722 43.7074 279.997 33.0426 273.394 29.9221C271.72 29.1311 270.543 29.001 264.456 28.9359L259.316 28.8801V29.2003ZM270.317 30.7141C275.333 32.9362 276.48 40.4867 272.393 44.3796C270.675 46.0152 268.135 46.6513 265.568 46.0885L264.813 45.9223L264.848 38.2191L264.881 30.5168L265.47 30.3588C266.686 30.0315 269.192 30.2163 270.317 30.7141ZM228.154 34.0989C228.319 34.4707 228.585 35.0954 228.746 35.4868C229.662 37.7296 229.967 38.4421 230.204 38.9068C230.35 39.1907 230.508 39.5821 230.555 39.7773L230.641 40.1335H224.774L224.957 39.6069C225.059 39.3177 225.28 38.8097 225.449 38.4772C225.618 38.1457 225.803 37.7296 225.857 37.551C225.913 37.3733 226.156 36.8095 226.398 36.2984C226.64 35.7873 226.838 35.3226 226.837 35.2668C226.836 35.0892 227.674 33.4205 227.765 33.4205C227.812 33.4205 227.987 33.7262 228.154 34.0989ZM198.185 66.3462C197.494 66.8471 197.477 67.1713 198.093 68.0862C198.346 68.461 198.552 68.809 198.552 68.8596C198.552 68.9112 198.662 69.1921 198.797 69.4833C198.931 69.7755 199.117 70.2464 199.208 70.5304C199.3 70.8143 199.403 71.121 199.437 71.214C199.484 71.3348 199.374 71.3203 199.04 71.1644C198.542 70.929 198.046 70.9826 197.719 71.3048C197.611 71.4112 197.459 71.499 197.383 71.499C197.304 71.499 197.24 71.5423 197.239 71.595C197.237 71.6476 196.966 71.9822 196.636 72.3374C194.417 74.7269 194.191 77.8495 196.177 78.6725C197.318 79.1454 198.026 78.7881 199.651 76.9201C199.832 76.7105 199.996 76.41 200.631 75.112C201.596 73.1429 201.635 70.2547 200.725 68.3464C200.553 67.986 200.327 67.4873 200.222 67.2394C199.691 65.9766 199.071 65.704 198.185 66.3462ZM208.912 66.0984C208.607 66.4567 207.718 67.858 207.718 67.9829C207.718 68.1296 207.492 68.5694 207.168 69.0455C207.048 69.2231 206.851 69.6588 206.728 70.0141C206.608 70.3682 206.376 70.931 206.213 71.2635C206.051 71.595 205.879 72.072 205.831 72.323C205.784 72.5739 205.659 72.9405 205.554 73.1387C205.449 73.337 205.361 73.6148 205.358 73.7573C205.356 73.8998 205.267 74.128 205.161 74.2653C205.055 74.4037 204.968 74.7011 204.968 74.9272C204.968 75.1534 204.88 75.585 204.772 75.8865C204.374 76.9986 204.688 78.2832 205.504 78.8842C206.075 79.3044 206.223 79.1051 206.465 77.5893C206.587 76.8313 206.741 76.0311 206.81 75.8132C206.877 75.5953 206.932 75.302 206.932 75.1616C206.932 75.0212 206.986 74.8508 207.052 74.7826C207.118 74.7155 207.298 74.2261 207.454 73.6922C207.74 72.7185 207.875 72.3942 208.633 70.8525C209.264 69.5669 209.625 68.9742 210.338 68.0408C210.698 67.5688 210.993 67.0804 210.993 66.9555C210.993 66.4392 209.238 65.7164 208.912 66.0984ZM217.803 66.9452C216.518 67.0257 215.144 68.0521 214.445 69.4534C214.291 69.7621 214.041 70.2629 213.888 70.5665C213.737 70.8711 213.611 71.1995 213.611 71.2986C213.611 71.3978 213.423 71.5155 213.187 71.5609C211.751 71.8397 211.369 72.7463 212.708 72.6937C213.164 72.6761 213.228 72.705 213.149 72.893C213.099 73.0128 213.005 73.3318 212.941 73.6003C212.876 73.8688 212.768 74.1879 212.701 74.3097C212.634 74.4326 212.367 75.4022 212.108 76.4679C211.848 77.5325 211.571 78.6529 211.492 78.9575C211.299 79.703 211.283 81.0351 211.467 81.1518C211.546 81.2013 211.655 81.3779 211.707 81.5421C211.93 82.2463 212.943 82.1699 212.763 81.4626C212.7 81.2168 212.725 81.1631 212.879 81.2199C213.009 81.2695 213.052 81.2354 213.005 81.1156C212.909 80.8699 213.179 79.5605 213.47 78.8563C213.79 78.0818 214.004 77.3972 214.004 77.1535C214.004 77.0441 214.114 76.6702 214.249 76.3233C214.489 75.7048 214.674 75.142 215.116 73.6612C215.374 72.798 215.43 72.7505 216.283 72.6627C217.419 72.544 217.484 71.499 216.356 71.499C215.733 71.499 215.734 71.4205 216.379 70.2216C216.587 69.8385 216.754 69.4606 216.754 69.38C216.754 69.1704 217.395 68.271 217.545 68.271C217.615 68.271 217.672 68.5075 217.672 68.7966C217.672 69.9036 218.332 70.2051 218.853 69.3367C219.244 68.683 219.657 67.3788 219.563 67.0877C219.484 66.8409 219.47 66.8398 217.803 66.9452ZM146.587 68.0469C146.059 68.6748 146.014 71.0116 146.528 71.2057C146.773 71.2976 147.348 71.1282 147.348 70.963C147.348 70.8391 147.818 70.2454 148.467 69.5515C148.747 69.251 148.701 69.0052 148.297 68.6376C147.485 67.9003 146.886 67.6938 146.587 68.0469ZM211.15 68.0387C211.063 68.1244 210.99 68.3134 210.986 68.459C210.982 68.6046 210.873 68.9804 210.743 69.2943C210.387 70.1617 210.851 71.5144 211.43 71.2945C211.707 71.1902 213.22 69.3656 213.215 69.1446C213.198 68.5096 211.561 67.6339 211.15 68.0387ZM127.037 70.3682C126.813 70.6708 126.57 71.0622 126.496 71.2398C126.163 72.04 125.834 72.9136 125.597 73.621C125.456 74.0443 125.165 74.7558 124.951 75.2039C124.736 75.65 124.561 76.1581 124.561 76.3316C124.561 76.505 124.511 76.6764 124.449 76.7147C124.087 76.9356 123.208 80.242 123.22 81.3418C123.227 81.9489 123.76 83.0352 124.079 83.0941C124.523 83.1757 124.779 82.7533 125.074 81.4657C125.231 80.7759 125.421 80.0376 125.497 79.8238C125.573 79.6111 125.663 79.291 125.698 79.1134C125.733 78.9368 125.842 78.6167 125.94 78.404C126.039 78.1902 126.221 77.6677 126.343 77.2423C126.466 76.8158 126.637 76.3811 126.721 76.2737C126.805 76.1674 126.955 75.8772 127.054 75.6283C127.282 75.0501 129.21 72.7732 129.681 72.5243C129.892 72.4128 129.892 72.4438 129.673 73.0169C129.006 74.7682 128.857 75.1017 128.682 75.2453C128.576 75.331 128.49 75.4786 128.49 75.5716C128.49 75.6645 128.116 76.1147 127.659 76.5711C126.661 77.5697 126.573 77.7504 126.953 78.0137C127.735 78.5527 129.549 77.6998 130.53 76.3316C132.915 73.0035 131.605 69.7766 128.769 71.9967L128.197 72.4438L128.752 71.5774L129.307 70.71L129.007 70.3941C128.735 70.1101 128.034 69.823 127.607 69.821C127.517 69.8199 127.261 70.0678 127.037 70.3682ZM139.73 70.8856C139.405 71.1458 139.098 71.6631 139.098 71.9533C139.098 72.0999 139.028 72.2899 138.944 72.3725C138.78 72.5336 138.596 72.9983 138.164 74.3376C138.016 74.7992 137.832 75.3217 137.757 75.4993C137.613 75.84 137.422 76.5856 137.308 77.2526C137.253 77.5738 137.318 77.7266 137.638 78.0426C138.379 78.7737 139.098 78.6797 139.098 77.8526C139.098 77.5789 139.184 77.2433 139.289 77.106C139.395 76.9676 139.485 76.7683 139.49 76.661C139.516 76.0579 141.106 73.9504 141.537 73.9504C141.586 73.9504 141.828 74.1827 142.074 74.4667C142.565 75.0336 142.849 75.1017 143.28 74.7579C143.753 74.3789 143.787 71.7024 143.322 71.4019C142.934 71.152 142.167 71.4597 141.911 71.9698C141.76 72.2682 140.845 73.305 140.732 73.305C140.628 73.305 141.169 72.3023 141.322 72.2094C141.672 71.9967 141.448 71.4948 140.833 71.1138C140.132 70.6811 140.017 70.6563 139.73 70.8856ZM154.862 71.0787C154.742 71.2738 154.548 71.5795 154.43 71.7561C153.945 72.4923 152.997 74.6009 152.854 75.2649C152.788 75.5716 152.672 76.0548 152.597 76.3388C152.091 78.2615 153.109 79.4149 154.105 78.0488C154.379 77.676 154.81 77.1267 155.067 76.8272C155.323 76.5277 155.768 76.0011 156.056 75.6573C156.645 74.9541 157.149 74.5328 157.264 74.6474C157.308 74.6897 157.25 74.826 157.137 74.9499C155.748 76.4844 157.751 79.3323 159.21 77.896C159.323 77.7844 159.474 77.6946 159.545 77.6946C159.936 77.6946 159.574 76.9821 159.162 76.9429L158.734 76.9026L158.82 76.2335C158.868 75.8658 158.95 75.5065 159.002 75.4353C159.054 75.364 159.139 75.1317 159.191 74.9189C159.288 74.51 159.926 73.431 160.347 72.9622C161.097 72.1268 159.391 71.2697 158.383 71.976C158.201 72.1041 157.932 72.2765 157.786 72.3591C157.525 72.5088 156.975 73.0603 155.867 74.2891C155.285 74.9344 155.325 74.7558 155.979 73.7882C156.917 72.3994 156.918 72.0751 155.987 71.1427C155.474 70.6305 155.149 70.6119 154.862 71.0787ZM179.171 71.1778C176.282 72.6844 174.774 76.0889 176.304 77.645C176.897 78.2481 177.275 78.1964 178.241 77.3797C178.551 77.1184 178.556 77.1184 178.456 77.3714C178.4 77.5129 178.306 77.8268 178.248 78.0674C178.19 78.309 178.082 78.5424 178.01 78.5868C177.936 78.6312 177.754 78.9502 177.604 79.2951C177.24 80.1336 176.522 81.0516 175.956 81.4027C174.997 81.9995 174.169 82.1462 173.889 81.7693C173.607 81.3903 173.089 81.5504 173.042 82.0326C172.97 82.7451 175.932 83.0198 177.356 82.4332C178.228 82.0739 179.717 79.8951 180.377 78.0168C180.526 77.5903 180.728 77.1277 180.826 76.9883C180.924 76.8479 181.003 76.6537 181.003 76.5577C181.003 76.3553 181.558 74.9313 182.263 73.3236C182.873 71.9337 181.034 71.8913 180.391 73.2802C179.736 74.6928 177.467 77.1907 177.467 76.4988C177.467 75.3372 179.802 72.5791 181.11 72.196C181.867 71.974 182.019 71.7932 181.795 71.3812C181.389 70.6326 180.367 70.5541 179.171 71.1778ZM115.893 71.1675C112.303 72.925 111.445 78.3379 114.72 78.5713C115.712 78.6425 116.317 78.3152 117.644 76.9904C118.621 76.0145 117.942 75.4435 116.915 76.376C115.762 77.423 114.951 77.6512 114.638 77.0162C114.404 76.5422 114.476 76.4606 115.57 75.9454C117.122 75.2153 117.769 74.5255 118.263 73.0809C118.618 72.0452 118.614 72.008 118.112 71.5392C117.28 70.7637 116.861 70.6935 115.893 71.1675ZM134.829 71.2346C134.015 71.626 132.812 72.7422 132.812 73.1067C132.812 73.2162 132.758 73.305 132.693 73.305C132.366 73.305 131.649 75.2948 131.637 76.2314C131.614 78.2305 133.971 79.3086 135.536 78.0126C136.728 77.0244 137.133 76.5763 137.133 76.2438C137.133 75.743 136.592 75.7554 136.071 76.2686C134.798 77.5232 133.597 77.7772 133.597 76.7921C133.597 76.345 133.636 76.2861 133.988 76.2097C134.204 76.1632 134.414 76.0713 134.454 76.0063C134.496 75.9412 134.63 75.8865 134.753 75.8865C135.081 75.8865 136.423 74.7486 136.854 74.1073C138.275 71.9853 137.009 70.1865 134.829 71.2346ZM150.02 71.1582C148.823 71.8325 147.348 73.3711 147.348 73.9442C147.348 74.0609 147.298 74.2126 147.235 74.2798C145.928 75.711 147.09 78.5971 148.973 78.5971C150.53 78.5971 153.169 76.0703 151.776 75.9113C151.511 75.8813 151.354 75.9681 151.128 76.2706C150.538 77.0575 149.16 77.6275 148.844 77.2155C148.439 76.6888 148.599 76.44 149.672 75.934C152.141 74.7692 153.339 72.3694 151.974 71.3224C151.249 70.7648 150.787 70.7255 150.02 71.1582ZM163.379 71.2284C162.394 71.6776 161.309 72.7515 161.02 73.5631C160.907 73.8832 160.73 74.3355 160.628 74.5689C160.394 75.1038 160.394 75.5065 160.627 76.0445C160.728 76.2768 160.91 76.7064 161.031 76.9986C161.325 77.7039 162.36 78.4938 162.988 78.4938C163.5 78.4938 165.13 77.5005 165.479 76.9759C165.944 76.2758 165.546 75.7647 164.918 76.2531C163.797 77.1267 162.9 77.2712 162.783 76.5969C162.552 75.2628 163.117 73.6623 164.172 72.6679C165.018 71.8707 165.618 72.3488 164.82 73.1831C164.028 74.0082 164.879 74.8642 165.829 74.1982C167.983 72.6854 165.851 70.0998 163.379 71.2284ZM169.544 71.2315C167.454 72.2414 165.889 75.2721 166.541 77.0513C167.024 78.373 168.598 79.0463 169.626 78.371C170.512 77.7906 170.76 77.6006 171.267 77.1163C171.567 76.8313 171.823 76.5102 171.839 76.4028C171.948 75.6552 171.407 75.7058 170.449 76.5329C169.238 77.5769 168.301 77.6874 168.301 76.7869C168.301 76.345 168.341 76.2861 168.692 76.2097C168.908 76.1632 169.117 76.0713 169.158 76.0063C169.199 75.9412 169.323 75.8865 169.433 75.8865C169.633 75.8865 171.181 74.7558 171.182 74.6092C171.182 74.5668 171.327 74.3655 171.505 74.1631C172.055 73.5311 172.382 72.1216 172.065 71.7334C171.362 70.867 170.607 70.7173 169.544 71.2315ZM184.998 71.3234C184.566 71.5764 184.172 71.8511 184.123 71.9316C184.075 72.0132 183.834 72.2941 183.588 72.5563C181.691 74.5844 181.657 77.4623 183.517 78.4164C184.63 78.9864 186.857 77.6729 187.733 75.9299C187.942 75.5158 188.168 75.0676 188.236 74.9344C188.746 73.938 188.294 71.9203 187.552 71.8862C187.443 71.881 187.121 71.6466 186.834 71.3657C186.2 70.741 185.999 70.7359 184.998 71.3234ZM191.807 71.056C191.018 71.4411 190.784 71.6136 190.136 72.2827C188.146 74.3397 187.901 77.1246 189.609 78.2687C190.79 79.0597 193.172 77.7906 194.052 75.902C194.239 75.5034 194.467 75.0315 194.561 74.8539C194.73 74.5297 194.791 74.0268 194.767 73.1511C194.754 72.6926 194.129 71.8882 193.784 71.8862C193.719 71.8862 193.442 71.6538 193.167 71.3688C192.629 70.8102 192.411 70.7596 191.807 71.056ZM219.203 71.2078C215.559 73.1356 214.927 78.5971 218.348 78.5971C219.388 78.5971 221.469 77.041 221.469 76.2634C221.469 75.7182 220.937 75.7461 220.382 76.3192C219.211 77.5283 217.933 77.7627 217.933 76.7683C217.933 76.4534 218.015 76.3574 218.424 76.1911C219.493 75.7574 219.816 75.5643 220.469 74.9768C221.169 74.3469 221.251 74.223 221.717 73.0881C222.08 72.2063 222.069 72.0927 221.567 71.5795C220.759 70.7524 220.223 70.6677 219.203 71.2078ZM123.622 71.2728C123.532 71.4318 123.358 71.7375 123.235 71.9502C123.111 72.1629 122.886 72.5698 122.733 72.8537C121.979 74.2622 121.679 74.224 121.679 72.7205C121.679 71.4556 121.51 71.248 120.386 71.1417C119.104 71.0198 119.05 71.4205 119.949 74.4026L120.337 75.6934L119.939 76.1095C119.72 76.3378 119.108 76.8303 118.58 77.202C117.88 77.6946 117.621 77.9569 117.621 78.1655C117.621 79.0659 118.924 78.6312 120.53 77.1969C120.868 76.8943 120.89 76.8912 120.976 77.1246C121.274 77.9373 121.978 78.625 122.438 78.5527C123.447 78.3906 123.593 77.8939 122.976 76.7229C122.372 75.5767 122.413 75.331 123.374 74.3376C123.821 73.876 124.278 73.3246 124.392 73.1119C124.505 72.8992 124.708 72.5863 124.841 72.4169C125.183 71.9853 125.146 71.564 124.741 71.2491C124.285 70.8969 123.827 70.9062 123.622 71.2728ZM144.959 72.1113C144.208 72.8899 143.428 75.3299 143.42 76.9222C143.417 77.5841 144.529 78.7169 144.861 78.3895C144.931 78.3204 145.044 78.0054 145.113 77.6894C145.374 76.4978 145.562 75.8865 145.666 75.8865C145.727 75.8865 145.776 75.7853 145.776 75.6614C145.777 75.5364 145.853 75.2907 145.946 75.112C146.037 74.9344 146.216 74.5214 146.342 74.192C146.468 73.8636 146.687 73.4919 146.828 73.3659C147.237 73.0014 147.147 72.6328 146.538 72.1722C145.861 71.659 145.412 71.6415 144.959 72.1113ZM209.483 72.167C208.878 72.8238 208.538 73.7851 208.114 76.0466C207.885 77.2712 208.044 77.7018 208.931 78.2687C209.413 78.5764 209.638 78.3833 209.723 77.5913C209.842 76.472 211.059 73.5187 211.518 73.2399C212.002 72.9456 211.143 71.9326 210.302 71.8025C209.948 71.7488 209.816 71.8077 209.483 72.167ZM199.429 73.3886C199.387 73.7882 199.291 74.1786 199.214 74.2529C199.138 74.3283 199.075 74.4894 199.075 74.6112C199.075 74.7341 198.989 74.9974 198.883 75.1988C198.776 75.4001 198.588 75.7967 198.463 76.0806C198.339 76.3646 198.002 76.8437 197.714 77.1452C196.115 78.8201 196.419 76.1364 198.068 74.0154C199.211 72.545 199.533 72.3973 199.429 73.3886ZM116.578 73.5363C116.154 74.1817 115 75.2401 115 74.984C115 74.4945 115.791 73.5063 116.572 73.021C117.045 72.7267 117.047 72.8238 116.578 73.5363ZM135.955 72.9745C135.955 73.0778 135.897 73.1966 135.827 73.2389C135.757 73.2812 135.603 73.5167 135.484 73.7624C135.367 74.0082 135.227 74.2095 135.174 74.2095C135.121 74.2095 134.851 74.4254 134.576 74.6897C134.287 74.9654 134.053 75.1048 134.023 75.0181C133.944 74.7837 134.618 73.7356 135.081 73.3711C135.309 73.1914 135.555 72.99 135.627 72.924C135.821 72.7443 135.955 72.7649 135.955 72.9745ZM151.015 73.0386C151.015 73.2936 149.224 75.1978 149.099 75.0749C148.902 74.8807 149.872 73.5074 150.491 73.1036C151.055 72.735 151.015 72.7401 151.015 73.0386ZM170.658 72.8444C170.658 73.1356 169.939 74.1507 169.419 74.5926C168.67 75.2308 168.526 75.1172 169.024 74.2808C169.437 73.5859 170.658 72.513 170.658 72.8444ZM186.766 73.6767C186.766 75.4817 185.016 77.9641 184.209 77.3053C183.609 76.8138 185.237 73.1759 186.057 73.1759C186.142 73.1759 186.283 73.0892 186.373 72.9828C186.675 72.6245 186.766 72.7856 186.766 73.6767ZM192.851 75.205C192.08 76.8055 190.727 77.8794 190.436 77.1225C190.066 76.1643 191.284 73.906 192.659 72.9983L192.986 72.7835L193.024 73.7728C193.053 74.4832 193.003 74.888 192.851 75.205ZM220.422 72.9085C220.422 72.9745 220.341 73.1078 220.244 73.2038C220.146 73.2998 219.985 73.5249 219.885 73.7046C219.578 74.2498 218.458 75.1916 218.458 74.9035C218.459 74.4667 219.225 73.465 219.897 73.0189C220.274 72.7701 220.422 72.7391 220.422 72.9085ZM221.99 76.1023C221.398 77.7018 221.394 77.7689 221.848 78.2161C222.815 79.1692 224.999 77.6099 224.117 76.5969C223.435 75.8132 222.204 75.5261 221.99 76.1023Z" fill="#14442C"/>
<path fill-rule="evenodd" clip-rule="evenodd" d="M33.873 6.14939C33.4717 6.24335 33.3492 6.42096 33.7337 6.34868C33.9201 6.31254 34.1056 6.23302 34.1443 6.17004C34.1842 6.10808 34.1978 6.06368 34.1758 6.07194C34.1538 6.0802 34.0176 6.11428 33.873 6.14939ZM14.0911 14.3917C13.9507 14.5032 13.9151 14.5548 14.0105 14.5073C14.1058 14.4588 14.3415 14.372 14.5343 14.3152C14.8151 14.2316 14.8308 14.2079 14.615 14.1996C14.4662 14.1934 14.2305 14.2801 14.0911 14.3917ZM10.2358 16.0015C10.0912 16.0975 10.1446 16.1099 10.4317 16.0459C10.9136 15.9395 11.0173 15.8652 10.6821 15.8683C10.5448 15.8693 10.3426 15.9302 10.2358 16.0015ZM201.798 63.9785C202.251 64.0043 202.959 64.0033 203.369 63.9775C203.781 63.9527 203.41 63.932 202.546 63.932C201.682 63.932 201.345 63.9537 201.798 63.9785Z" fill="#946C0C"/>
</g>
<defs>
<clipPath id="clip0_9_3">
<rect width="49" height="91" fill="white" transform="matrix(1 0 0 -1 0 91)"/>
</clipPath>
</defs>
</svg>
